<svg xmlns="http://www.w3.org/2000/svg" viewBox="0 0 76 70" style="enable-background:new 0 0 76 70" xml:space="preserve"><linearGradient id="a" gradientUnits="userSpaceOnUse" x1="-1.391" y1="7.418" x2="77.391" y2="62.582"><stop offset="0" style="stop-color:#fff"/><stop offset=".208" style="stop-color:#fff"/><stop offset=".566" style="stop-color:#fff"/><stop offset=".915" style="stop-color:#fff"/><stop offset="1" style="stop-color:#fff"/></linearGradient><path d="M76 7.9C76 3.5 72.4 0 68 0H8C3.6 0 0 3.5 0 7.9v54.3C0 66.5 3.6 70 8 70h60c4.4 0 8-3.5 8-7.9V7.9zm-2.7 54.2c0 2.9-2.4 5.2-5.3 5.2H8c-2.9 0-5.3-2.4-5.3-5.2V7.9C2.7 5 5 2.6 8 2.6h60c2.9 0 5.3 2.4 5.3 5.2v54.3z" style="fill:url(#a)"/><linearGradient id="b" gradientUnits="userSpaceOnUse" x1="4903.967" y1="9200.179" x2="4880.536" y2="9200.179" gradientTransform="rotate(90 7047.623 2204.88)"><stop offset="0" style="stop-color:#fff"/><stop offset=".208" style="stop-color:#fff"/><stop offset=".566" style="stop-color:#fff"/><stop offset=".669" style="stop-color:#fff"/><stop offset=".824" style="stop-color:#fff"/><stop offset=".842" style="stop-color:#fff"/><stop offset=".871" style="stop-color:#fff"/><stop offset=".906" style="stop-color:#fff"/><stop offset=".922" style="stop-color:#fff"/><stop offset="1" style="stop-color:#fff"/></linearGradient><path d="M64.4 61.2V41.4c0-1.4-1.1-2.5-2.5-2.5s-2.5 1.1-2.5 2.5v11.9l-15.2-15c-.8-.8-2.2-.8-3 0-.8.8-.8 2.2 0 3l15.1 14.9H42.7c-1.4 0-2.5 1.1-2.5 2.5 0 .7.3 1.3.7 1.7.4.4 1.1.7 1.8.7h21.7z" style="fill:url(#b)"/><linearGradient id="c" gradientUnits="userSpaceOnUse" x1="4875.585" y1="9229.131" x2="4851.752" y2="9229.131" gradientTransform="rotate(90 7047.623 2204.88)"><stop offset="0" style="stop-color:#fff"/><stop offset=".208" style="stop-color:#fff"/><stop offset=".566" style="stop-color:#fff"/><stop offset=".669" style="stop-color:#fff"/><stop offset=".824" style="stop-color:#fff"/><stop offset=".842" style="stop-color:#fff"/><stop offset=".871" style="stop-color:#fff"/><stop offset=".906" style="stop-color:#fff"/><stop offset=".922" style="stop-color:#fff"/><stop offset="1" style="stop-color:#fff"/></linearGradient><path d="M11.5 9h20c1.4 0 2.5 1.1 2.5 2.5S32.9 14 31.5 14H19.4l15.2 15c.8.8.8 2.2 0 3-.8.8-2.2.8-3 0L16.5 16.9v13.5c0 1.4-1.1 2.5-2.5 2.5-.7 0-1.3-.3-1.8-.7-.4-.4-.7-1.1-.7-1.7V9z" style="fill:url(#c)"/><linearGradient id="d" gradientUnits="userSpaceOnUse" x1="4880.044" y1="9200.179" x2="4904.458" y2="9200.179" gradientTransform="rotate(90 7047.623 2204.88)"><stop offset="0" style="stop-color:#fff"/><stop offset=".208" style="stop-color:#fff"/><stop offset=".566" style="stop-color:#fff"/><stop offset=".669" style="stop-color:#fff"/><stop offset=".824" style="stop-color:#fff"/><stop offset=".842" style="stop-color:#fff"/><stop offset=".871" style="stop-color:#fff"/><stop offset=".906" style="stop-color:#fff"/><stop offset=".922" style="stop-color:#fff"/><stop offset="1" style="stop-color:#fff"/></linearGradient><path d="M64.4 61.2V41.4c0-1.4-1.1-2.5-2.5-2.5s-2.5 1.1-2.5 2.5v11.9l-15.2-15c-.8-.8-2.2-.8-3 0-.8.8-.8 2.2 0 3l15.1 14.9H42.7c-1.4 0-2.5 1.1-2.5 2.5 0 .7.3 1.3.7 1.7.4.4 1.1.7 1.8.7h21.7z" style="fill:none;stroke:url(#d);stroke-width:.9835;stroke-miterlimit:10"/><linearGradient id="e" gradientUnits="userSpaceOnUse" x1="4851.261" y1="9229.131" x2="4876.078" y2="9229.131" gradientTransform="rotate(90 7047.623 2204.88)"><stop offset="0" style="stop-color:#fff"/><stop offset=".208" style="stop-color:#fff"/><stop offset=".566" style="stop-color:#fff"/><stop offset=".669" style="stop-color:#fff"/><stop offset=".824" style="stop-color:#fff"/><stop offset=".842" style="stop-color:#fff"/><stop offset=".871" style="stop-color:#fff"/><stop offset=".906" style="stop-color:#fff"/><stop offset=".922" style="stop-color:#fff"/><stop offset="1" style="stop-color:#fff"/></linearGradient><path d="M11.5 9h20c1.4 0 2.5 1.1 2.5 2.5S32.9 14 31.5 14H19.4l15.2 15c.8.8.8 2.2 0 3-.8.8-2.2.8-3 0L16.5 16.9v13.5c0 1.4-1.1 2.5-2.5 2.5-.7 0-1.3-.3-1.8-.7-.4-.4-.7-1.1-.7-1.7V9z" style="fill:none;stroke:url(#e);stroke-width:.9835;stroke-miterlimit:10"/></svg>