<?xml version="1.0" encoding="utf-8"?>
<!-- Generator: Adobe Illustrator 26.4.1, SVG Export Plug-In . SVG Version: 6.00 Build 0)  -->
<svg version="1.1" id="Слой_1" xmlns="http://www.w3.org/2000/svg" xmlns:xlink="http://www.w3.org/1999/xlink" x="0px" y="0px"
	 viewBox="0 0 746 746" style="enable-background:new 0 0 746 746;" xml:space="preserve">
<style type="text/css">
	.st0{fill-rule:evenodd;clip-rule:evenodd;fill:url(#SVGID_1_);}
	.st1{fill-rule:evenodd;clip-rule:evenodd;fill:url(#SVGID_00000025404510470636774630000012493516349562077601_);}
	
		.st2{opacity:0.5;fill-rule:evenodd;clip-rule:evenodd;fill:url(#SVGID_00000176760715091938293070000016039301448625790889_);enable-background:new    ;}
	.st3{fill-rule:evenodd;clip-rule:evenodd;fill:#400300;}
	.st4{fill-rule:evenodd;clip-rule:evenodd;fill:url(#SVGID_00000010270165849914268080000006890780633996093089_);}
	.st5{fill:url(#SVGID_00000118360185586658302000000010631191467887927193_);}
	.st6{fill-rule:evenodd;clip-rule:evenodd;fill:url(#SVGID_00000106870202794626356080000005786158751620418449_);}
	.st7{fill-rule:evenodd;clip-rule:evenodd;fill:url(#SVGID_00000166666099173807616520000015904674213513168544_);}
	.st8{fill-rule:evenodd;clip-rule:evenodd;fill:url(#SVGID_00000070106037119298029770000013099037785305666189_);}
	.st9{fill-rule:evenodd;clip-rule:evenodd;fill:url(#SVGID_00000000931129678747706780000013380245517820755363_);}
	.st10{fill-rule:evenodd;clip-rule:evenodd;fill:url(#SVGID_00000005239178438545618090000012066437666104189112_);}
</style>
<g>
	
		<linearGradient id="SVGID_1_" gradientUnits="userSpaceOnUse" x1="373" y1="-391" x2="373" y2="-639" gradientTransform="matrix(1 0 0 1 0 888)">
		<stop  offset="0" style="stop-color:#BB6100"/>
		<stop  offset="0.132" style="stop-color:#C7750A"/>
		<stop  offset="0.401" style="stop-color:#E6AA23"/>
		<stop  offset="0.599" style="stop-color:#FFD438"/>
		<stop  offset="0.856" style="stop-color:#FFDD40"/>
		<stop  offset="1" style="stop-color:#FFE447"/>
	</linearGradient>
	<path class="st0" d="M373,249c68.5,0,124,55.5,124,124s-55.5,124-124,124s-124-55.5-124-124S304.5,249,373,249z"/>
	
		<linearGradient id="SVGID_00000079462950288671185820000005089092752591717808_" gradientUnits="userSpaceOnUse" x1="373" y1="-515" x2="373" y2="-637.3" gradientTransform="matrix(1 0 0 1 0 888)">
		<stop  offset="0" style="stop-color:#FBD83D"/>
		<stop  offset="1" style="stop-color:#FEFC8C"/>
	</linearGradient>
	<path style="fill-rule:evenodd;clip-rule:evenodd;fill:url(#SVGID_00000079462950288671185820000005089092752591717808_);" d="
		M495.3,373c0-28.3-9.7-55.4-27.5-77.4c-23.2-28.5-57.9-44.9-94.8-44.9s-71.6,16.4-94.8,44.9c-18,22-27.5,49.1-27.5,77.4
		c0-1.4,3.2-2.6,7.2-2.6c4,0,7.2,1.2,7.2,2.6c0-30.4,12.7-59.2,35.1-79.6c19.9-18.3,45.7-28.3,72.7-28.3c27,0,52.8,10.1,72.8,28.3
		c22.3,20.5,35.1,49.2,35.1,79.6c0-1.4,3.2-2.6,7.2-2.6C492.1,370.5,495.3,371.6,495.3,373z"/>
	
		<linearGradient id="SVGID_00000151525054348399918670000016834739597098552449_" gradientUnits="userSpaceOnUse" x1="373" y1="-405.9" x2="373" y2="-619.6" gradientTransform="matrix(1 0 0 1 0 888)">
		<stop  offset="0" style="stop-color:#FFFC8F"/>
		<stop  offset="1" style="stop-color:#A69A2E"/>
	</linearGradient>
	
		<path style="opacity:0.5;fill-rule:evenodd;clip-rule:evenodd;fill:url(#SVGID_00000151525054348399918670000016834739597098552449_);enable-background:new    ;" d="
		M373,268.4c58.3,0,105.5,47.8,105.5,106.8S431.3,482.1,373,482.1s-105.5-47.8-105.5-106.8S314.8,268.4,373,268.4z"/>
	<path class="st3" d="M373,266.7c58.6,0,106.3,47.5,106.3,106.3c0,58.6-47.5,106.3-106.3,106.3c-58.6,0-106.3-47.5-106.3-106.3
		C266.7,314.4,314.4,266.7,373,266.7z"/>
	
		<radialGradient id="SVGID_00000029018387413757464910000016059857030590076601_" cx="371.9677" cy="-567.7115" r="192.005" gradientTransform="matrix(1 0 0 1 0 888)" gradientUnits="userSpaceOnUse">
		<stop  offset="0.26" style="stop-color:#FFFFDB"/>
		<stop  offset="0.336" style="stop-color:#FDFAD1"/>
		<stop  offset="0.467" style="stop-color:#F6ECB6"/>
		<stop  offset="0.635" style="stop-color:#EBD689"/>
		<stop  offset="0.833" style="stop-color:#DDB74D"/>
		<stop  offset="1" style="stop-color:#CF9A14"/>
	</radialGradient>
	<path style="fill-rule:evenodd;clip-rule:evenodd;fill:url(#SVGID_00000029018387413757464910000016059857030590076601_);" d="
		M495.3,393.8c-13.6,54.9-63.2,95.6-122.3,95.6c-59,0-108.6-40.7-122.3-95.6c9.9,58.6,61,103.2,122.3,103.2S485.4,452.5,495.3,393.8
		z"/>
	
		<linearGradient id="SVGID_00000023972783920187943120000008477555920479065252_" gradientUnits="userSpaceOnUse" x1="373.1293" y1="-540.2201" x2="373.1293" y2="-634.7965" gradientTransform="matrix(1 0 0 1 0 888)">
		<stop  offset="0" style="stop-color:#FEF172"/>
		<stop  offset="1" style="stop-color:#FFFEC8"/>
	</linearGradient>
	<path style="fill:url(#SVGID_00000023972783920187943120000008477555920479065252_);" d="M266.1,344.4c-0.6,2.5-3.1,3.9-5.6,3.2
		s-3.9-3.1-3.2-5.6c7-26.2,22.5-48.4,42.9-64.1c20.3-15.8,45.7-24.8,72.9-24.8s52.6,9.2,73,24.8s35.8,37.8,42.9,64.1
		c0.6,2.5-0.8,4.9-3.2,5.6s-4.9-0.8-5.6-3.2c-6.5-24.2-20.7-44.7-39.5-59.2c-19-14.5-42.5-22.9-67.6-22.9s-48.6,8.4-67.4,22.9
		C286.7,299.7,272.5,320.2,266.1,344.4z"/>
	<g>
		
			<linearGradient id="SVGID_00000036944256177392950650000017338880457915640466_" gradientUnits="userSpaceOnUse" x1="373" y1="-413.6" x2="373" y2="-616.4" gradientTransform="matrix(1 0 0 1 0 888)">
			<stop  offset="0" style="stop-color:#009500"/>
			<stop  offset="1" style="stop-color:#00C329"/>
		</linearGradient>
		<path style="fill-rule:evenodd;clip-rule:evenodd;fill:url(#SVGID_00000036944256177392950650000017338880457915640466_);" d="
			M373,271.6c56.1,0,101.4,45.5,101.4,101.4c0,56.1-45.5,101.4-101.4,101.4c-56.1,0-101.4-45.5-101.4-101.4
			C271.6,317,316.9,271.6,373,271.6z"/>
		
			<linearGradient id="SVGID_00000060711499883591405690000012200011700510210984_" gradientUnits="userSpaceOnUse" x1="373" y1="1519.823" x2="373" y2="1336.823" gradientTransform="matrix(1 0 0 -1 0 1801.323)">
			<stop  offset="0" style="stop-color:#00C93D"/>
			<stop  offset="1" style="stop-color:#007F00"/>
		</linearGradient>
		<path style="fill-rule:evenodd;clip-rule:evenodd;fill:url(#SVGID_00000060711499883591405690000012200011700510210984_);" d="
			M373,464.5c50.5,0,91.5-40.9,91.5-91.5s-40.9-91.5-91.5-91.5s-91.5,40.9-91.5,91.5S322.5,464.5,373,464.5z"/>
		
			<linearGradient id="SVGID_00000016065555317883790200000008466758869570811579_" gradientUnits="userSpaceOnUse" x1="373" y1="-546.8666" x2="373" y2="-608.9272" gradientTransform="matrix(1 0 0 1 0 888)">
			<stop  offset="0" style="stop-color:#00990D"/>
			<stop  offset="1" style="stop-color:#00FF7F"/>
		</linearGradient>
		<path style="fill-rule:evenodd;clip-rule:evenodd;fill:url(#SVGID_00000016065555317883790200000008466758869570811579_);" d="
			M373,281.6c25.2,0,47.9,10.2,64.5,26.6c4.6,4.6,8.8,9.8,12.4,15.4c-3.4-5.6-7.2-10.6-11.5-15.4c-16.5-17.7-39.7-28.8-65.4-28.8
			s-48.8,11-65.4,28.8c-4.4,4.6-8.3,9.8-11.5,15.4c3.6-5.6,7.8-10.7,12.4-15.4C325.1,291.8,347.8,281.6,373,281.6z"/>
		
			<linearGradient id="SVGID_00000082346209499175333730000009134591027562871956_" gradientUnits="userSpaceOnUse" x1="373" y1="1516.5229" x2="373" y2="1465.1429" gradientTransform="matrix(1 0 0 -1 0 1801.323)">
			<stop  offset="0" style="stop-color:#00FE6B"/>
			<stop  offset="1" style="stop-color:#00CA34"/>
		</linearGradient>
		<path style="fill-rule:evenodd;clip-rule:evenodd;fill:url(#SVGID_00000082346209499175333730000009134591027562871956_);" d="
			M444,320.2c-17.8-21.8-43.1-35.4-71-35.4s-53.2,13.6-71,35.4C284.5,341.4,461.5,341.4,444,320.2z"/>
		
			<linearGradient id="SVGID_00000173864825315001406110000005380560465246872741_" gradientUnits="userSpaceOnUse" x1="373" y1="-404.623" x2="373" y2="-456.003" gradientTransform="matrix(1 0 0 1 0 888)">
			<stop  offset="0" style="stop-color:#00A21D"/>
			<stop  offset="0.999" style="stop-color:#009411"/>
		</linearGradient>
		<path style="fill-rule:evenodd;clip-rule:evenodd;fill:url(#SVGID_00000173864825315001406110000005380560465246872741_);" d="
			M444,425.9c-17.8,21.8-43.1,35.4-71,35.4s-53.2-13.6-71-35.4C284.5,404.7,461.5,404.7,444,425.9z"/>
	</g>
</g>
</svg>
