<svg width="117" height="116" viewBox="0 0 117 116" fill="none" xmlns="http://www.w3.org/2000/svg">
<path d="M106.7 0.00439453H9.39999C4.19999 0.00439453 0 4.20439 0 9.40439V106.604C0 111.804 4.19999 116.004 9.39999 116.004H106.7C111.9 116.004 116.1 111.804 116.1 106.604V9.40439C116.1 4.20439 111.9 0.00439453 106.7 0.00439453ZM108.7 100.104C108.7 103.904 105.6 107.004 101.8 107.004H14.3C10.5 107.004 7.39999 103.904 7.39999 100.104V15.9044C7.39999 12.1044 10.5 9.00439 14.3 9.00439H101.8C105.6 9.00439 108.7 12.1044 108.7 15.9044V100.104Z" fill="url(#paint0_linear_1_4)"/>
<path d="M101.8 106.004H14.4C11.5 106.004 9.19995 103.704 9.19995 100.804V15.2044C9.19995 12.3044 11.5 10.0044 14.4 10.0044H101.8C104.7 10.0044 107 12.3044 107 15.2044V100.804C107 103.704 104.7 106.004 101.8 106.004Z" stroke="url(#paint1_linear_1_4)" stroke-width="3.7009" stroke-miterlimit="10"/>
<path d="M94.4 1.30437L91.3 1.00437L91.2 0.704369C91.2 0.704369 63.6 0.10437 57.6 0.10437C51.5 0.10437 23.9999 0.804367 23.9999 0.804367L24.1 1.00437L20.9999 1.30437C20.4999 1.30437 20.2 1.40437 19.8 1.40437C24.4 1.10437 25.8 2.90437 25.8 2.90437L35.2 8.70437H80.9999L89.9 3.00437C89.9 3.00437 91.2 1.30437 95.8 1.50437C95.3 1.40437 94.9 1.40437 94.4 1.30437Z" fill="url(#paint2_linear_1_4)"/>
<path d="M95.9999 0.504378C91.8999 0.104378 87.9 -0.395622 82.2 0.504378C84.8 0.904378 86.2999 2.50437 85.9999 3.70438C85.6999 4.90438 84.3 5.70437 84.3 5.70437C82.7 6.90437 81.6 7.10437 79.8 7.20437C69 7.90437 47.5 7.90437 36.7 7.20437C34.9 7.10437 33.8 6.90437 32.2 5.70437C32.2 5.70437 30.6999 4.90438 30.4999 3.70438C30.1999 2.50437 31.7 0.904378 34.3 0.504378C28.7 -0.295622 24.6999 0.104378 20.4999 0.504378C17.0999 0.804378 16.3 2.20438 16.4 3.00438C16.7 5.10438 20.2 7.10437 20.2 7.10437L22.2 8.60437L25.4 10.3044C28.7 12.7044 45.4999 12.6044 50.4999 12.6044H59.8H65.9C70.9 12.6044 87.3 12.9044 90.6 10.5044L93.4 8.80438L95.9 7.10437C95.9 7.10437 99.6999 5.20437 99.9999 3.10437C100.2 2.20437 99.3999 0.804378 95.9999 0.504378Z" fill="url(#paint3_linear_1_4)"/>
<path d="M97.8 0.904381C96.3 0.504381 93.6 0.304382 93.6 0.304382C93.6 0.304382 98.6 0.804387 98.3 2.50439C98.1 3.40439 96.7 4.70438 95.9 5.40438C91.4 9.10438 92.6999 7.80439 92.6999 7.80439C88.6999 10.6044 87.0999 11.4044 81.1999 11.4044L58.1 11.6044L34.9999 11.4044C29.0999 11.4044 27.4999 10.6044 23.4999 7.80439C23.4999 7.80439 24.8 9.00438 20.3 5.40438C19.5 4.80438 18.1 3.40439 17.9 2.50439C17.6 0.804387 22.6 0.304382 22.6 0.304382C22.6 0.304382 19.9 0.504381 18.4 0.904381C14.3 2.00438 15.5 3.70439 16.4 4.50439C17.3 5.30439 20.1 7.30439 20.1 7.30439L21.1999 8.10438C25.7999 11.5044 28.4999 12.7044 35.4999 12.7044L57.4 12.8044H58.1H59.9L80.6999 12.7044C87.6999 12.7044 90.3999 11.5044 94.9999 8.10438L96.1 7.30439C96.1 7.30439 98.9 5.40439 99.8 4.50439C100.6 3.70439 101.9 2.10438 97.8 0.904381Z" fill="url(#paint4_linear_1_4)"/>
<path d="M94.4 114.704L91.3 115.004L91.2 115.304C91.2 115.304 63.6 115.904 57.6 115.904C51.5 115.904 23.9999 115.204 23.9999 115.204L24.1 115.004L20.9999 114.704C20.4999 114.704 20.2 114.604 19.8 114.604C24.4 114.904 25.8 113.104 25.8 113.104L35.2 107.304H80.9999L89.9 113.004C89.9 113.004 91.2 114.704 95.8 114.504C95.3 114.604 94.9 114.604 94.4 114.704Z" fill="url(#paint5_linear_1_4)"/>
<path d="M95.9999 115.504C91.8999 115.904 87.9 116.404 82.2 115.504C84.8 115.104 86.2999 113.504 85.9999 112.304C85.6999 111.104 84.3 110.304 84.3 110.304C82.7 109.104 81.6 108.904 79.8 108.804C69 108.104 47.5 108.104 36.7 108.804C34.9 108.904 33.8 109.104 32.2 110.304C32.2 110.304 30.6999 111.104 30.4999 112.304C30.1999 113.504 31.7 115.104 34.3 115.504C28.7 116.304 24.6999 115.904 20.4999 115.504C17.0999 115.204 16.3 113.804 16.4 113.004C16.7 110.904 20.2 108.904 20.2 108.904L22.2 107.404L25.4 105.704C28.7 103.304 45.4999 103.404 50.4999 103.404H59.8H65.9C70.9 103.404 87.3 103.104 90.6 105.504L93.4 107.204L95.9 108.904C95.9 108.904 99.6999 110.804 99.9999 112.904C100.2 113.804 99.3999 115.204 95.9999 115.504Z" fill="url(#paint6_linear_1_4)"/>
<path d="M97.8 115.104C96.3 115.504 93.6 115.704 93.6 115.704C93.6 115.704 98.6 115.204 98.3 113.504C98.1 112.604 96.7 111.304 95.9 110.604C91.4 106.904 92.6999 108.204 92.6999 108.204C88.6999 105.404 87.0999 104.604 81.1999 104.604L58.1 104.404L34.9999 104.604C29.0999 104.604 27.4999 105.404 23.4999 108.204C23.4999 108.204 24.8 107.004 20.3 110.604C19.5 111.204 18.1 112.604 17.9 113.504C17.6 115.204 22.6 115.704 22.6 115.704C22.6 115.704 19.9 115.504 18.4 115.104C14.3 114.004 15.5 112.304 16.4 111.504C17.3 110.704 20.1 108.704 20.1 108.704L21.1999 107.904C25.7999 104.504 28.4999 103.304 35.4999 103.304L57.4 103.204H58.1H59.9L80.6999 103.304C87.6999 103.304 90.3999 104.504 94.9999 107.904L96.1 108.704C96.1 108.704 98.9 110.604 99.8 111.504C100.6 112.304 101.9 113.904 97.8 115.104Z" fill="url(#paint7_linear_1_4)"/>
<defs>
<linearGradient id="paint0_linear_1_4" x1="58.05" y1="115.817" x2="58.05" y2="0.73449" gradientUnits="userSpaceOnUse">
<stop stop-color="#FDF8AF"/>
<stop offset="0.0178916" stop-color="#EBD78C"/>
<stop offset="0.04956" stop-color="#CDA052"/>
<stop offset="0.0730608" stop-color="#BA7F2F"/>
<stop offset="0.0855991" stop-color="#B37221"/>
<stop offset="0.0989062" stop-color="#B77727"/>
<stop offset="0.1168" stop-color="#C18638"/>
<stop offset="0.1373" stop-color="#D19E54"/>
<stop offset="0.159" stop-color="#E8BF7A"/>
<stop offset="0.1883" stop-color="#F9FDD9"/>
<stop offset="0.1969" stop-color="#F8F9D3"/>
<stop offset="0.2794" stop-color="#EDD999"/>
<stop offset="0.3406" stop-color="#E6C676"/>
<stop offset="0.3732" stop-color="#E3BE68"/>
<stop offset="0.4287" stop-color="#D0A252"/>
<stop offset="0.5097" stop-color="#B97F36"/>
<stop offset="0.5531" stop-color="#B0712B"/>
<stop offset="0.5743" stop-color="#B77B33"/>
<stop offset="0.6104" stop-color="#C89648"/>
<stop offset="0.6535" stop-color="#E3BE68"/>
<stop offset="0.6808" stop-color="#E9CD84"/>
<stop offset="0.7261" stop-color="#F3E2AC"/>
<stop offset="0.7675" stop-color="#F9F2C9"/>
<stop offset="0.8033" stop-color="#FEFCDB"/>
<stop offset="0.8293" stop-color="#FFFFE1"/>
<stop offset="0.8326" stop-color="#FCF8D3"/>
<stop offset="0.845" stop-color="#F1DFA5"/>
<stop offset="0.8559" stop-color="#E9CD84"/>
<stop offset="0.865" stop-color="#E5C26F"/>
<stop offset="0.8711" stop-color="#E3BE68"/>
<stop offset="0.8865" stop-color="#D1A451"/>
<stop offset="0.9096" stop-color="#B98133"/>
<stop offset="0.9222" stop-color="#B07427"/>
<stop offset="0.9324" stop-color="#B4792E"/>
<stop offset="0.9471" stop-color="#BF8841"/>
<stop offset="0.9648" stop-color="#D0A061"/>
<stop offset="0.9844" stop-color="#E9C28D"/>
<stop offset="1" stop-color="#FFE0B5"/>
</linearGradient>
<linearGradient id="paint1_linear_1_4" x1="7.34945" y1="58.0044" x2="108.85" y2="58.0044" gradientUnits="userSpaceOnUse">
<stop offset="0.1744" stop-color="#804E26"/>
<stop offset="0.5462" stop-color="#4F2F10"/>
<stop offset="1" stop-color="#603913"/>
</linearGradient>
<linearGradient id="paint2_linear_1_4" x1="57.801" y1="8.68287" x2="57.801" y2="-0.09443" gradientUnits="userSpaceOnUse">
<stop stop-color="#21FF00"/>
<stop offset="0.0887131" stop-color="#17E00F"/>
<stop offset="0.2023" stop-color="#0DBF1E"/>
<stop offset="0.3113" stop-color="#06A72A"/>
<stop offset="0.4124" stop-color="#029931"/>
<stop offset="0.498" stop-color="#009433"/>
<stop offset="0.7313" stop-color="#019632"/>
<stop offset="0.8153" stop-color="#069D2E"/>
<stop offset="0.8752" stop-color="#0FA827"/>
<stop offset="0.9236" stop-color="#1CB91D"/>
<stop offset="0.9646" stop-color="#2CCF10"/>
<stop offset="1" stop-color="#3FE900"/>
</linearGradient>
<linearGradient id="paint3_linear_1_4" x1="58.2102" y1="12.6164" x2="58.2102" y2="0.0149785" gradientUnits="userSpaceOnUse">
<stop stop-color="#F9F1D1"/>
<stop offset="0.3066" stop-color="#DCB267"/>
<stop offset="0.3309" stop-color="#D3A85F"/>
<stop offset="0.3716" stop-color="#BA8F49"/>
<stop offset="0.4235" stop-color="#936526"/>
<stop offset="0.4289" stop-color="#8E6022"/>
<stop offset="0.449" stop-color="#875A20"/>
<stop offset="0.4773" stop-color="#754B1A"/>
<stop offset="0.5013" stop-color="#603913"/>
<stop offset="0.55" stop-color="#774C1B"/>
<stop offset="0.636" stop-color="#9A6827"/>
<stop offset="0.6821" stop-color="#A8732C"/>
<stop offset="0.6957" stop-color="#AE7B36"/>
<stop offset="0.7188" stop-color="#BE9251"/>
<stop offset="0.7485" stop-color="#D8B77D"/>
<stop offset="0.7788" stop-color="#F7E3B0"/>
<stop offset="0.8051" stop-color="#F8E6B7"/>
<stop offset="0.8442" stop-color="#FAEFCB"/>
<stop offset="0.8776" stop-color="#FDF8E2"/>
<stop offset="0.8845" stop-color="#FBF1D2"/>
<stop offset="0.8952" stop-color="#F7E3B0"/>
<stop offset="0.9095" stop-color="#E3CB96"/>
<stop offset="0.9393" stop-color="#BE9E64"/>
<stop offset="0.954" stop-color="#B08D51"/>
<stop offset="0.9703" stop-color="#C09B5E"/>
<stop offset="1" stop-color="#E8BD7C"/>
</linearGradient>
<linearGradient id="paint4_linear_1_4" x1="15.5126" y1="6.55439" x2="100.647" y2="6.55439" gradientUnits="userSpaceOnUse">
<stop stop-color="#E8BD7C"/>
<stop offset="0.00199436" stop-color="#E4B978"/>
<stop offset="0.0189749" stop-color="#C59959"/>
<stop offset="0.036596" stop-color="#AD8041"/>
<stop offset="0.0549177" stop-color="#9C6E30"/>
<stop offset="0.0743781" stop-color="#916325"/>
<stop offset="0.0969236" stop-color="#8E6022"/>
<stop offset="0.1014" stop-color="#916425"/>
<stop offset="0.1483" stop-color="#B18545"/>
<stop offset="0.1739" stop-color="#BD9151"/>
<stop offset="0.2287" stop-color="#C09453"/>
<stop offset="0.2656" stop-color="#C89D59"/>
<stop offset="0.297" stop-color="#D6AC63"/>
<stop offset="0.3066" stop-color="#DCB267"/>
<stop offset="0.3499" stop-color="#BD914B"/>
<stop offset="0.4039" stop-color="#9B6E2D"/>
<stop offset="0.4329" stop-color="#8E6022"/>
<stop offset="0.4387" stop-color="#875A20"/>
<stop offset="0.4469" stop-color="#754B1A"/>
<stop offset="0.4538" stop-color="#603913"/>
<stop offset="0.5568" stop-color="#8A5E3C"/>
<stop offset="0.5695" stop-color="#9B6A33"/>
<stop offset="0.5833" stop-color="#A8732C"/>
<stop offset="0.5991" stop-color="#AE7B36"/>
<stop offset="0.626" stop-color="#BE9251"/>
<stop offset="0.6606" stop-color="#D8B77D"/>
<stop offset="0.6958" stop-color="#F7E3B0"/>
<stop offset="0.7861" stop-color="#F7E4B2"/>
<stop offset="0.8211" stop-color="#F8E7B9"/>
<stop offset="0.8466" stop-color="#FAECC5"/>
<stop offset="0.8672" stop-color="#FCF3D6"/>
<stop offset="0.8776" stop-color="#FDF8E2"/>
<stop offset="0.8845" stop-color="#FBF1D2"/>
<stop offset="0.8952" stop-color="#F7E3B0"/>
<stop offset="0.9095" stop-color="#E3CB96"/>
<stop offset="0.9393" stop-color="#BE9E64"/>
<stop offset="0.954" stop-color="#B08D51"/>
<stop offset="0.9703" stop-color="#C09B5E"/>
<stop offset="1" stop-color="#E8BD7C"/>
</linearGradient>
<linearGradient id="paint5_linear_1_4" x1="57.801" y1="107.325" x2="57.801" y2="116.105" gradientUnits="userSpaceOnUse">
<stop stop-color="#21FF00"/>
<stop offset="0.0887131" stop-color="#17E00F"/>
<stop offset="0.2023" stop-color="#0DBF1E"/>
<stop offset="0.3113" stop-color="#06A72A"/>
<stop offset="0.4124" stop-color="#029931"/>
<stop offset="0.498" stop-color="#009433"/>
<stop offset="0.7313" stop-color="#019632"/>
<stop offset="0.8153" stop-color="#069D2E"/>
<stop offset="0.8752" stop-color="#0FA827"/>
<stop offset="0.9236" stop-color="#1CB91D"/>
<stop offset="0.9646" stop-color="#2CCF10"/>
<stop offset="1" stop-color="#3FE900"/>
</linearGradient>
<linearGradient id="paint6_linear_1_4" x1="58.2102" y1="103.392" x2="58.2102" y2="115.994" gradientUnits="userSpaceOnUse">
<stop stop-color="#F9F1D1"/>
<stop offset="0.3066" stop-color="#DCB267"/>
<stop offset="0.3309" stop-color="#D3A85F"/>
<stop offset="0.3716" stop-color="#BA8F49"/>
<stop offset="0.4235" stop-color="#936526"/>
<stop offset="0.4289" stop-color="#8E6022"/>
<stop offset="0.449" stop-color="#875A20"/>
<stop offset="0.4773" stop-color="#754B1A"/>
<stop offset="0.5013" stop-color="#603913"/>
<stop offset="0.55" stop-color="#774C1B"/>
<stop offset="0.636" stop-color="#9A6827"/>
<stop offset="0.6821" stop-color="#A8732C"/>
<stop offset="0.6957" stop-color="#AE7B36"/>
<stop offset="0.7188" stop-color="#BE9251"/>
<stop offset="0.7485" stop-color="#D8B77D"/>
<stop offset="0.7788" stop-color="#F7E3B0"/>
<stop offset="0.8051" stop-color="#F8E6B7"/>
<stop offset="0.8442" stop-color="#FAEFCB"/>
<stop offset="0.8776" stop-color="#FDF8E2"/>
<stop offset="0.8845" stop-color="#FBF1D2"/>
<stop offset="0.8952" stop-color="#F7E3B0"/>
<stop offset="0.9095" stop-color="#E3CB96"/>
<stop offset="0.9393" stop-color="#BE9E64"/>
<stop offset="0.954" stop-color="#B08D51"/>
<stop offset="0.9703" stop-color="#C09B5E"/>
<stop offset="1" stop-color="#E8BD7C"/>
</linearGradient>
<linearGradient id="paint7_linear_1_4" x1="15.5126" y1="109.454" x2="100.647" y2="109.454" gradientUnits="userSpaceOnUse">
<stop stop-color="#E8BD7C"/>
<stop offset="0.00199436" stop-color="#E4B978"/>
<stop offset="0.0189749" stop-color="#C59959"/>
<stop offset="0.036596" stop-color="#AD8041"/>
<stop offset="0.0549177" stop-color="#9C6E30"/>
<stop offset="0.0743781" stop-color="#916325"/>
<stop offset="0.0969236" stop-color="#8E6022"/>
<stop offset="0.1014" stop-color="#916425"/>
<stop offset="0.1483" stop-color="#B18545"/>
<stop offset="0.1739" stop-color="#BD9151"/>
<stop offset="0.2287" stop-color="#C09453"/>
<stop offset="0.2656" stop-color="#C89D59"/>
<stop offset="0.297" stop-color="#D6AC63"/>
<stop offset="0.3066" stop-color="#DCB267"/>
<stop offset="0.3499" stop-color="#BD914B"/>
<stop offset="0.4039" stop-color="#9B6E2D"/>
<stop offset="0.4329" stop-color="#8E6022"/>
<stop offset="0.4387" stop-color="#875A20"/>
<stop offset="0.4469" stop-color="#754B1A"/>
<stop offset="0.4538" stop-color="#603913"/>
<stop offset="0.5568" stop-color="#8A5E3C"/>
<stop offset="0.5695" stop-color="#9B6A33"/>
<stop offset="0.5833" stop-color="#A8732C"/>
<stop offset="0.5991" stop-color="#AE7B36"/>
<stop offset="0.626" stop-color="#BE9251"/>
<stop offset="0.6606" stop-color="#D8B77D"/>
<stop offset="0.6958" stop-color="#F7E3B0"/>
<stop offset="0.7861" stop-color="#F7E4B2"/>
<stop offset="0.8211" stop-color="#F8E7B9"/>
<stop offset="0.8466" stop-color="#FAECC5"/>
<stop offset="0.8672" stop-color="#FCF3D6"/>
<stop offset="0.8776" stop-color="#FDF8E2"/>
<stop offset="0.8845" stop-color="#FBF1D2"/>
<stop offset="0.8952" stop-color="#F7E3B0"/>
<stop offset="0.9095" stop-color="#E3CB96"/>
<stop offset="0.9393" stop-color="#BE9E64"/>
<stop offset="0.954" stop-color="#B08D51"/>
<stop offset="0.9703" stop-color="#C09B5E"/>
<stop offset="1" stop-color="#E8BD7C"/>
</linearGradient>
</defs>
</svg>
