<svg width="243" height="117" viewBox="0 0 243 117" fill="none" xmlns="http://www.w3.org/2000/svg">
<path d="M232.7 0.0999756H9.49997C4.29997 0.0999756 0.0999756 4.3 0.0999756 9.5V106.7C0.0999756 111.9 4.29997 116.1 9.49997 116.1H232.8C238 116.1 242.2 111.9 242.2 106.7V9.5C242.1 4.3 237.9 0.0999756 232.7 0.0999756ZM234.7 100.2C234.7 104 231.6 107.1 227.8 107.1H14.4C10.6 107.1 7.49997 104 7.49997 100.2V16C7.49997 12.2 10.6 9.09998 14.4 9.09998H227.8C231.6 9.09998 234.7 12.2 234.7 16V100.2Z" fill="url(#paint0_linear_1_17)"/>
<path d="M227.8 106.1H14.3999C11.4999 106.1 9.19995 103.8 9.19995 100.9V15.3C9.19995 12.4 11.4999 10.1 14.3999 10.1H227.8C230.7 10.1 233 12.4 233 15.3V100.9C233 103.8 230.7 106.1 227.8 106.1Z" stroke="url(#paint1_linear_1_17)" stroke-width="3.704" stroke-miterlimit="10"/>
<path d="M157.4 1.40002L154.3 1.09998L154.2 0.799988C154.2 0.799988 126.6 0.200012 120.6 0.200012C114.5 0.200012 86.9999 0.900024 86.9999 0.900024L87.0999 1.09998L83.9999 1.40002C83.4999 1.40002 83.1999 1.5 82.7999 1.5C87.3999 1.2 88.7999 3 88.7999 3L98.2 8.79999H144L152.9 3.09998C152.9 3.09998 154.2 1.39998 158.8 1.59998C158.3 1.49998 157.9 1.50002 157.4 1.40002Z" fill="url(#paint2_linear_1_17)"/>
<path d="M159 0.599959C154.9 0.199959 150.9 -0.300041 145.2 0.599959C147.8 0.999959 149.3 2.59997 149 3.79997C148.7 4.99997 147.3 5.79997 147.3 5.79997C145.7 6.99997 144.6 7.19997 142.8 7.29997C132 7.99997 110.5 7.99997 99.7 7.29997C97.9 7.19997 96.8 6.99997 95.2 5.79997C95.2 5.79997 93.7 4.99997 93.5 3.79997C93.2 2.59997 94.7 0.999959 97.3 0.599959C91.7 -0.200041 87.7 0.199959 83.5 0.599959C80.1 0.899959 79.3 2.29996 79.4 3.09996C79.7 5.19996 83.2 7.2 83.2 7.2L85.2 8.7L88.4 10.4C91.7 12.8 108.5 12.7 113.5 12.7H122.8H128.9C133.9 12.7 150.3 13 153.6 10.6L156.4 8.90001L158.9 7.2C158.9 7.2 162.7 5.3 163 3.2C163.2 2.3 162.4 0.899959 159 0.599959Z" fill="url(#paint3_linear_1_17)"/>
<path d="M160.8 1C159.3 0.6 156.6 0.400024 156.6 0.400024C156.6 0.400024 161.6 0.899976 161.3 2.59998C161.1 3.49998 159.7 4.8 158.9 5.5C154.4 9.2 155.7 7.90002 155.7 7.90002C151.7 10.7 150.1 11.5 144.2 11.5L121.1 11.7L98 11.5C92.1 11.5 90.5 10.7 86.5 7.90002C86.5 7.90002 87.8 9.1 83.3 5.5C82.5 4.9 81.1 3.49998 80.9 2.59998C80.6 0.899976 85.6 0.400024 85.6 0.400024C85.6 0.400024 82.9 0.6 81.4 1C77.3 2.1 78.5 3.79998 79.4 4.59998C80.3 5.39998 83.1 7.40002 83.1 7.40002L84.2 8.20001C88.8 11.6 91.5 12.8 98.5 12.8L120.4 12.9H121.1H122.9L143.7 12.8C150.7 12.8 153.4 11.6 158 8.20001L159.1 7.40002C159.1 7.40002 161.9 5.49998 162.8 4.59998C163.6 3.79998 164.9 2.2 160.8 1Z" fill="url(#paint4_linear_1_17)"/>
<path d="M157.4 114.8L154.3 115.1L154.2 115.4C154.2 115.4 126.6 116 120.6 116C114.5 116 86.9999 115.3 86.9999 115.3L87.0999 115.1L83.9999 114.8C83.4999 114.8 83.1999 114.7 82.7999 114.7C87.3999 115 88.7999 113.2 88.7999 113.2L98.2 107.4H144L152.9 113.1C152.9 113.1 154.2 114.8 158.8 114.6C158.3 114.7 157.9 114.7 157.4 114.8Z" fill="url(#paint5_linear_1_17)"/>
<path d="M159 115.6C154.9 116 150.9 116.5 145.2 115.6C147.8 115.2 149.3 113.6 149 112.4C148.7 111.2 147.3 110.4 147.3 110.4C145.7 109.2 144.6 109 142.8 108.9C132 108.2 110.5 108.2 99.7 108.9C97.9 109 96.8 109.2 95.2 110.4C95.2 110.4 93.7 111.2 93.5 112.4C93.2 113.6 94.7 115.2 97.3 115.6C91.7 116.4 87.7 116 83.5 115.6C80.1 115.3 79.3 113.9 79.4 113.1C79.7 111 83.2 109 83.2 109L85.2 107.5L88.4 105.8C91.7 103.4 108.5 103.5 113.5 103.5H122.8H128.9C133.9 103.5 150.3 103.2 153.6 105.6L156.4 107.3L158.9 109C158.9 109 162.7 110.9 163 113C163.2 113.9 162.4 115.3 159 115.6Z" fill="url(#paint6_linear_1_17)"/>
<path d="M160.8 115.2C159.3 115.6 156.6 115.8 156.6 115.8C156.6 115.8 161.6 115.3 161.3 113.6C161.1 112.7 159.7 111.4 158.9 110.7C154.4 107 155.7 108.3 155.7 108.3C151.7 105.5 150.1 104.7 144.2 104.7L121.1 104.5L98 104.7C92.1 104.7 90.5 105.5 86.5 108.3C86.5 108.3 87.8 107.1 83.3 110.7C82.5 111.3 81.1 112.7 80.9 113.6C80.6 115.3 85.6 115.8 85.6 115.8C85.6 115.8 82.9 115.6 81.4 115.2C77.3 114.1 78.5 112.4 79.4 111.6C80.3 110.8 83.1 108.8 83.1 108.8L84.2 108C88.8 104.6 91.5 103.4 98.5 103.4L120.4 103.3H121.1H122.9L143.7 103.4C150.7 103.4 153.4 104.6 158 108L159.1 108.8C159.1 108.8 161.9 110.7 162.8 111.6C163.6 112.4 164.9 114 160.8 115.2Z" fill="url(#paint7_linear_1_17)"/>
<defs>
<linearGradient id="paint0_linear_1_17" x1="121.15" y1="115.909" x2="121.15" y2="0.825681" gradientUnits="userSpaceOnUse">
<stop stop-color="#FDF8AF"/>
<stop offset="0.0178916" stop-color="#EBD78C"/>
<stop offset="0.04956" stop-color="#CDA052"/>
<stop offset="0.0730608" stop-color="#BA7F2F"/>
<stop offset="0.0855991" stop-color="#B37221"/>
<stop offset="0.0989062" stop-color="#B77727"/>
<stop offset="0.1168" stop-color="#C18638"/>
<stop offset="0.1373" stop-color="#D19E54"/>
<stop offset="0.159" stop-color="#E8BF7A"/>
<stop offset="0.1883" stop-color="#F9FDD9"/>
<stop offset="0.1969" stop-color="#F8F9D3"/>
<stop offset="0.2794" stop-color="#EDD999"/>
<stop offset="0.3406" stop-color="#E6C676"/>
<stop offset="0.3732" stop-color="#E3BE68"/>
<stop offset="0.4287" stop-color="#D0A252"/>
<stop offset="0.5097" stop-color="#B97F36"/>
<stop offset="0.5531" stop-color="#B0712B"/>
<stop offset="0.5743" stop-color="#B77B33"/>
<stop offset="0.6104" stop-color="#C89648"/>
<stop offset="0.6535" stop-color="#E3BE68"/>
<stop offset="0.6808" stop-color="#E9CD84"/>
<stop offset="0.7261" stop-color="#F3E2AC"/>
<stop offset="0.7675" stop-color="#F9F2C9"/>
<stop offset="0.8033" stop-color="#FEFCDB"/>
<stop offset="0.8293" stop-color="#FFFFE1"/>
<stop offset="0.8326" stop-color="#FCF8D3"/>
<stop offset="0.845" stop-color="#F1DFA5"/>
<stop offset="0.8559" stop-color="#E9CD84"/>
<stop offset="0.865" stop-color="#E5C26F"/>
<stop offset="0.8711" stop-color="#E3BE68"/>
<stop offset="0.8865" stop-color="#D1A451"/>
<stop offset="0.9096" stop-color="#B98133"/>
<stop offset="0.9222" stop-color="#B07427"/>
<stop offset="0.9324" stop-color="#B4792E"/>
<stop offset="0.9471" stop-color="#BF8841"/>
<stop offset="0.9648" stop-color="#D0A061"/>
<stop offset="0.9844" stop-color="#E9C28D"/>
<stop offset="1" stop-color="#FFE0B5"/>
</linearGradient>
<linearGradient id="paint1_linear_1_17" x1="7.34795" y1="58.1" x2="234.852" y2="58.1" gradientUnits="userSpaceOnUse">
<stop offset="0.1744" stop-color="#804E26"/>
<stop offset="0.5462" stop-color="#4F2F10"/>
<stop offset="1" stop-color="#603913"/>
</linearGradient>
<linearGradient id="paint2_linear_1_17" x1="120.801" y1="8.77539" x2="120.801" y2="-0.00388707" gradientUnits="userSpaceOnUse">
<stop stop-color="#21FF00"/>
<stop offset="0.0887131" stop-color="#17E00F"/>
<stop offset="0.2023" stop-color="#0DBF1E"/>
<stop offset="0.3113" stop-color="#06A72A"/>
<stop offset="0.4124" stop-color="#029931"/>
<stop offset="0.498" stop-color="#009433"/>
<stop offset="0.7313" stop-color="#019632"/>
<stop offset="0.8153" stop-color="#069D2E"/>
<stop offset="0.8752" stop-color="#0FA827"/>
<stop offset="0.9236" stop-color="#1CB91D"/>
<stop offset="0.9646" stop-color="#2CCF10"/>
<stop offset="1" stop-color="#3FE900"/>
</linearGradient>
<linearGradient id="paint3_linear_1_17" x1="121.21" y1="12.7119" x2="121.21" y2="0.110358" gradientUnits="userSpaceOnUse">
<stop stop-color="#F9F1D1"/>
<stop offset="0.3066" stop-color="#DCB267"/>
<stop offset="0.3309" stop-color="#D3A85F"/>
<stop offset="0.3716" stop-color="#BA8F49"/>
<stop offset="0.4235" stop-color="#936526"/>
<stop offset="0.4289" stop-color="#8E6022"/>
<stop offset="0.449" stop-color="#875A20"/>
<stop offset="0.4773" stop-color="#754B1A"/>
<stop offset="0.5013" stop-color="#603913"/>
<stop offset="0.55" stop-color="#774C1B"/>
<stop offset="0.636" stop-color="#9A6827"/>
<stop offset="0.6821" stop-color="#A8732C"/>
<stop offset="0.6957" stop-color="#AE7B36"/>
<stop offset="0.7188" stop-color="#BE9251"/>
<stop offset="0.7485" stop-color="#D8B77D"/>
<stop offset="0.7788" stop-color="#F7E3B0"/>
<stop offset="0.8051" stop-color="#F8E6B7"/>
<stop offset="0.8442" stop-color="#FAEFCB"/>
<stop offset="0.8776" stop-color="#FDF8E2"/>
<stop offset="0.8845" stop-color="#FBF1D2"/>
<stop offset="0.8952" stop-color="#F7E3B0"/>
<stop offset="0.9095" stop-color="#E3CB96"/>
<stop offset="0.9393" stop-color="#BE9E64"/>
<stop offset="0.954" stop-color="#B08D51"/>
<stop offset="0.9703" stop-color="#C09B5E"/>
<stop offset="1" stop-color="#E8BD7C"/>
</linearGradient>
<linearGradient id="paint4_linear_1_17" x1="78.5126" y1="6.65002" x2="163.647" y2="6.65002" gradientUnits="userSpaceOnUse">
<stop stop-color="#E8BD7C"/>
<stop offset="0.00199436" stop-color="#E4B978"/>
<stop offset="0.0189749" stop-color="#C59959"/>
<stop offset="0.036596" stop-color="#AD8041"/>
<stop offset="0.0549177" stop-color="#9C6E30"/>
<stop offset="0.0743781" stop-color="#916325"/>
<stop offset="0.0969236" stop-color="#8E6022"/>
<stop offset="0.1014" stop-color="#916425"/>
<stop offset="0.1483" stop-color="#B18545"/>
<stop offset="0.1739" stop-color="#BD9151"/>
<stop offset="0.2287" stop-color="#C09453"/>
<stop offset="0.2656" stop-color="#C89D59"/>
<stop offset="0.297" stop-color="#D6AC63"/>
<stop offset="0.3066" stop-color="#DCB267"/>
<stop offset="0.3499" stop-color="#BD914B"/>
<stop offset="0.4039" stop-color="#9B6E2D"/>
<stop offset="0.4329" stop-color="#8E6022"/>
<stop offset="0.4387" stop-color="#875A20"/>
<stop offset="0.4469" stop-color="#754B1A"/>
<stop offset="0.4538" stop-color="#603913"/>
<stop offset="0.5568" stop-color="#8A5E3C"/>
<stop offset="0.5695" stop-color="#9B6A33"/>
<stop offset="0.5833" stop-color="#A8732C"/>
<stop offset="0.5991" stop-color="#AE7B36"/>
<stop offset="0.626" stop-color="#BE9251"/>
<stop offset="0.6606" stop-color="#D8B77D"/>
<stop offset="0.6958" stop-color="#F7E3B0"/>
<stop offset="0.7861" stop-color="#F7E4B2"/>
<stop offset="0.8211" stop-color="#F8E7B9"/>
<stop offset="0.8466" stop-color="#FAECC5"/>
<stop offset="0.8672" stop-color="#FCF3D6"/>
<stop offset="0.8776" stop-color="#FDF8E2"/>
<stop offset="0.8845" stop-color="#FBF1D2"/>
<stop offset="0.8952" stop-color="#F7E3B0"/>
<stop offset="0.9095" stop-color="#E3CB96"/>
<stop offset="0.9393" stop-color="#BE9E64"/>
<stop offset="0.954" stop-color="#B08D51"/>
<stop offset="0.9703" stop-color="#C09B5E"/>
<stop offset="1" stop-color="#E8BD7C"/>
</linearGradient>
<linearGradient id="paint5_linear_1_17" x1="120.801" y1="107.418" x2="120.801" y2="116.197" gradientUnits="userSpaceOnUse">
<stop stop-color="#21FF00"/>
<stop offset="0.0887131" stop-color="#17E00F"/>
<stop offset="0.2023" stop-color="#0DBF1E"/>
<stop offset="0.3113" stop-color="#06A72A"/>
<stop offset="0.4124" stop-color="#029931"/>
<stop offset="0.498" stop-color="#009433"/>
<stop offset="0.7313" stop-color="#019632"/>
<stop offset="0.8153" stop-color="#069D2E"/>
<stop offset="0.8752" stop-color="#0FA827"/>
<stop offset="0.9236" stop-color="#1CB91D"/>
<stop offset="0.9646" stop-color="#2CCF10"/>
<stop offset="1" stop-color="#3FE900"/>
</linearGradient>
<linearGradient id="paint6_linear_1_17" x1="121.21" y1="103.488" x2="121.21" y2="116.089" gradientUnits="userSpaceOnUse">
<stop stop-color="#F9F1D1"/>
<stop offset="0.3066" stop-color="#DCB267"/>
<stop offset="0.3309" stop-color="#D3A85F"/>
<stop offset="0.3716" stop-color="#BA8F49"/>
<stop offset="0.4235" stop-color="#936526"/>
<stop offset="0.4289" stop-color="#8E6022"/>
<stop offset="0.449" stop-color="#875A20"/>
<stop offset="0.4773" stop-color="#754B1A"/>
<stop offset="0.5013" stop-color="#603913"/>
<stop offset="0.55" stop-color="#774C1B"/>
<stop offset="0.636" stop-color="#9A6827"/>
<stop offset="0.6821" stop-color="#A8732C"/>
<stop offset="0.6957" stop-color="#AE7B36"/>
<stop offset="0.7188" stop-color="#BE9251"/>
<stop offset="0.7485" stop-color="#D8B77D"/>
<stop offset="0.7788" stop-color="#F7E3B0"/>
<stop offset="0.8051" stop-color="#F8E6B7"/>
<stop offset="0.8442" stop-color="#FAEFCB"/>
<stop offset="0.8776" stop-color="#FDF8E2"/>
<stop offset="0.8845" stop-color="#FBF1D2"/>
<stop offset="0.8952" stop-color="#F7E3B0"/>
<stop offset="0.9095" stop-color="#E3CB96"/>
<stop offset="0.9393" stop-color="#BE9E64"/>
<stop offset="0.954" stop-color="#B08D51"/>
<stop offset="0.9703" stop-color="#C09B5E"/>
<stop offset="1" stop-color="#E8BD7C"/>
</linearGradient>
<linearGradient id="paint7_linear_1_17" x1="78.5126" y1="109.55" x2="163.647" y2="109.55" gradientUnits="userSpaceOnUse">
<stop stop-color="#E8BD7C"/>
<stop offset="0.00199436" stop-color="#E4B978"/>
<stop offset="0.0189749" stop-color="#C59959"/>
<stop offset="0.036596" stop-color="#AD8041"/>
<stop offset="0.0549177" stop-color="#9C6E30"/>
<stop offset="0.0743781" stop-color="#916325"/>
<stop offset="0.0969236" stop-color="#8E6022"/>
<stop offset="0.1014" stop-color="#916425"/>
<stop offset="0.1483" stop-color="#B18545"/>
<stop offset="0.1739" stop-color="#BD9151"/>
<stop offset="0.2287" stop-color="#C09453"/>
<stop offset="0.2656" stop-color="#C89D59"/>
<stop offset="0.297" stop-color="#D6AC63"/>
<stop offset="0.3066" stop-color="#DCB267"/>
<stop offset="0.3499" stop-color="#BD914B"/>
<stop offset="0.4039" stop-color="#9B6E2D"/>
<stop offset="0.4329" stop-color="#8E6022"/>
<stop offset="0.4387" stop-color="#875A20"/>
<stop offset="0.4469" stop-color="#754B1A"/>
<stop offset="0.4538" stop-color="#603913"/>
<stop offset="0.5568" stop-color="#8A5E3C"/>
<stop offset="0.5695" stop-color="#9B6A33"/>
<stop offset="0.5833" stop-color="#A8732C"/>
<stop offset="0.5991" stop-color="#AE7B36"/>
<stop offset="0.626" stop-color="#BE9251"/>
<stop offset="0.6606" stop-color="#D8B77D"/>
<stop offset="0.6958" stop-color="#F7E3B0"/>
<stop offset="0.7861" stop-color="#F7E4B2"/>
<stop offset="0.8211" stop-color="#F8E7B9"/>
<stop offset="0.8466" stop-color="#FAECC5"/>
<stop offset="0.8672" stop-color="#FCF3D6"/>
<stop offset="0.8776" stop-color="#FDF8E2"/>
<stop offset="0.8845" stop-color="#FBF1D2"/>
<stop offset="0.8952" stop-color="#F7E3B0"/>
<stop offset="0.9095" stop-color="#E3CB96"/>
<stop offset="0.9393" stop-color="#BE9E64"/>
<stop offset="0.954" stop-color="#B08D51"/>
<stop offset="0.9703" stop-color="#C09B5E"/>
<stop offset="1" stop-color="#E8BD7C"/>
</linearGradient>
</defs>
</svg>
