<?xml version="1.0" encoding="utf-8"?>
<!-- Generator: Adobe Illustrator 26.4.1, SVG Export Plug-In . SVG Version: 6.00 Build 0)  -->
<svg version="1.1" id="Слой_1" xmlns="http://www.w3.org/2000/svg" xmlns:xlink="http://www.w3.org/1999/xlink" x="0px" y="0px"
	 viewBox="0 0 52 70" style="enable-background:new 0 0 52 70;" xml:space="preserve">
<style type="text/css">
	.st0{fill:url(#SVGID_1_);}
	.st1{fill:url(#XMLID_00000160884826469323823970000017277802105126163369_);}
	.st2{opacity:0.26;fill:url(#SVGID_00000123437775903830820690000001356952348058026682_);}
</style>
<g>
	
		<linearGradient id="SVGID_1_" gradientUnits="userSpaceOnUse" x1="26.002" y1="69.8402" x2="26.002" y2="-7.000000e-04" gradientTransform="matrix(1 0 0 1 -2.000000e-03 0)">
		<stop  offset="0" style="stop-color:#FDFA94"/>
		<stop  offset="0.2286" style="stop-color:#EAD177"/>
		<stop  offset="0.5" style="stop-color:#D19B51"/>
		<stop  offset="1" style="stop-color:#9D5524"/>
	</linearGradient>
	<path class="st0" d="M2.6,37.1C-1.3,29-0.8,19.7,4,12.1C8.8,4.5,17,0,26,0c9,0,17.2,4.5,22,12.1c4.8,7.6,5.3,16.9,1.5,25L26.3,70
		L2.6,37.1z"/>
	
		<linearGradient id="XMLID_00000084513307462915974450000002429587858819233680_" gradientUnits="userSpaceOnUse" x1="26.0022" y1="62.1431" x2="26.0022" y2="3.328" gradientTransform="matrix(1 0 0 1 -2.000000e-03 0)">
		<stop  offset="0" style="stop-color:#FDFCE5"/>
		<stop  offset="1.337091e-02" style="stop-color:#FAF4D9"/>
		<stop  offset="7.502443e-02" style="stop-color:#EBD5A9"/>
		<stop  offset="0.1335" style="stop-color:#E0BC83"/>
		<stop  offset="0.1872" style="stop-color:#D8AA67"/>
		<stop  offset="0.2345" style="stop-color:#D39F57"/>
		<stop  offset="0.2704" style="stop-color:#D19B51"/>
		<stop  offset="0.3744" style="stop-color:#BB7E3E"/>
		<stop  offset="0.5336" style="stop-color:#9D5524"/>
		<stop  offset="0.6429" style="stop-color:#D19B51"/>
		<stop  offset="0.8367" style="stop-color:#EAD177"/>
		<stop  offset="1" style="stop-color:#FDFA94"/>
	</linearGradient>
	
		<path id="XMLID_00000154398478702373091090000010059062245142769298_" style="fill:url(#XMLID_00000084513307462915974450000002429587858819233680_);" d="
		M26,3.3L26,3.3c16.7,0,27.6,17.3,20.4,32.3L26.3,62.3L5.6,35.6C-1.6,20.7,9.3,3.3,26,3.3z"/>
	
		<radialGradient id="SVGID_00000155115063473636732270000013429536804229989785_" cx="26.0013" cy="26.0896" r="29.0351" gradientTransform="matrix(0.9729 0 0 0.9699 0.7026 1.0534)" gradientUnits="userSpaceOnUse">
		<stop  offset="0" style="stop-color:#FFFFDF"/>
		<stop  offset="0.4279" style="stop-color:#FFFBDF;stop-opacity:0.5721"/>
		<stop  offset="0.8067" style="stop-color:#FFF1DE;stop-opacity:0.1933"/>
		<stop  offset="1" style="stop-color:#FFE8DD;stop-opacity:0"/>
	</radialGradient>
	<path style="opacity:0.26;fill:url(#SVGID_00000155115063473636732270000013429536804229989785_);" d="M26,3.3L26,3.3
		C9.3,3.3-1.6,20.7,5.6,35.6l7.9,10c4.7,2,7.1,3.7,12.6,3.7c5.4,0,7.7-1.2,12.4-3.2l8-10.6C53.6,20.7,42.7,3.3,26,3.3z"/>
</g>
</svg>
